<svg width="58" height="61" viewBox="0 0 58 61" fill="none" xmlns="http://www.w3.org/2000/svg">
<path d="M33.6932 17.0312C30.3587 18.701 26.7574 20.1543 23.1117 21.4684C20.1033 28.5183 19.0066 36.1403 17.658 43.1284L17.3468 44.7518L2.37564 38.6604L0 42.5873L19.303 51.9718C19.4512 51.7554 19.5549 51.5853 19.7328 51.2761C20.3108 50.2402 21.0962 48.7097 21.9854 46.8544C23.749 43.1748 25.9423 38.212 27.9727 33.2338C30.0178 28.271 31.8851 23.2773 32.9966 19.5668C33.2782 18.6237 33.5153 17.7734 33.6932 17.0312Z" fill="#FC8800"/>
<path d="M26.5203 43.4531C27.3205 41.6751 28.1505 39.7735 28.9656 37.8409C33.2337 44.5817 38.7319 51.477 44.0375 57.6148L40.5844 60.3359C34.9676 55.6668 30.2253 49.2353 26.5203 43.4531Z" fill="#3E3E3E"/>
<path d="M6.43335 21.0973C14.694 18.0825 22.1188 15.5779 29.2027 11.651C29.7214 12.9806 30.4921 14.1247 31.5146 14.975C24.1195 18.5463 15.3313 21.1437 7.6308 23.6328L6.43335 21.0973Z" fill="#989898"/>
<path d="M5 5.93903L6.71022 3C12.0691 6.06271 17.4784 8.89042 23.436 11.2713C22.0726 11.9207 20.6943 12.5391 19.2864 13.1266C14.3514 11.1167 9.80167 8.41115 5 5.93903Z" fill="#3E3E3E"/>
<path d="M31.4405 5.53642C32.2853 2.13822 34.7454 0.0155004 37.0721 3.9992e-05C37.413 -0.00150605 37.739 0.0417828 38.065 0.128361C40.6585 0.825626 42.3036 4.32896 41.3403 8.2188C40.377 12.0994 37.2944 14.3257 34.7157 13.6299C32.1371 12.9342 30.4772 9.42471 31.4405 5.53642Z" fill="#E3E3E3"/>
<path d="M52.0313 48.0001C51.9819 47.9999 51.9326 47.9999 51.8832 48.0009C51.7021 48.0047 51.5209 48.0172 51.3407 48.0371C51.3497 48.0415 51.3554 48.0457 51.3534 48.0489L50.6787 49.1104L52.668 50.4411L52.6647 50.4461L54.5656 50.4536L55.1527 49.224L54.3949 48.4896C53.9678 48.3067 53.5203 48.1727 53.0633 48.0918C52.7229 48.0315 52.3771 48.0014 52.0313 48.0001H52.0313ZM50.3053 49.4653L48.3228 50.4553L47.951 53.1041L49.333 54.01L51.8724 52.8408L52.2728 50.7817L50.3053 49.4653H50.3053ZM55.5902 49.4746L55.0182 50.6724L56.0074 52.6297L57.6779 53.6769L57.9823 53.1041C57.9884 53.1079 57.9945 53.1149 58 53.1243C57.9793 52.9909 57.954 52.858 57.9244 52.7264C57.7509 51.9568 57.424 51.2201 56.9688 50.5739C56.7247 50.2274 56.4433 49.907 56.1319 49.6184L55.5902 49.4746L55.5902 49.4746ZM47.4438 50.0937C47.2579 50.3102 47.087 50.5394 46.9341 50.78C46.5121 51.4439 46.2224 52.193 46.0879 52.9686C46.0223 53.3466 45.9935 53.731 46.0012 54.1151L46.5463 54.2522L47.4353 53.1621L47.8248 50.388L47.4438 50.0937ZM55.861 53.131L54.3587 54.3355L54.2653 57.0566L55.3319 57.6252L57.4095 56.2903L57.5281 54.1706L57.5256 54.1749L55.861 53.131L55.861 53.131ZM52.07 53.3034L49.539 54.4692L49.5062 56.5317L51.9059 58.076L53.7615 57.0953L53.854 54.3566L52.07 53.3034H52.07ZM46.0349 54.6425C46.0594 54.8696 46.0965 55.0951 46.1467 55.318C46.3202 56.0875 46.6479 56.8242 47.1031 57.4704C47.2074 57.6184 47.319 57.7612 47.4362 57.8994L47.1839 56.6032L47.1872 56.6023L46.4597 54.7493L46.0349 54.6425ZM49.1891 56.9262L47.8021 57.1457L48.0746 58.5479C48.3055 58.7495 48.5512 58.9337 48.8098 59.098C49.2031 59.348 49.6262 59.5523 50.0664 59.7061L51.7521 59.3377L51.6352 58.4999L49.1892 56.9261L49.1891 56.9262ZM57.3296 56.9397L55.601 58.05L54.4706 59.3251L54.5892 59.4908C54.9129 59.3416 55.2236 59.1639 55.5153 58.96C56.1605 58.5089 56.7159 57.929 57.1378 57.2651C57.2054 57.1589 57.2689 57.05 57.3296 56.9396L57.3296 56.9397ZM54.0248 59.5682L51.8731 59.8273L51.1742 59.9795C51.9007 60.0871 52.6469 60.0614 53.3628 59.9038C53.6161 59.848 53.8657 59.7748 54.1097 59.6868L54.0248 59.5682L54.0248 59.5682Z" fill="#FC8800"/>
</svg>
